# xmcd CD database file
#
# Track frame offsets:
#	150
#	11331
#	24593
#	36362
#	50187
#	60908
#	71449
#	85369
#	101179
#	111623
#	119691
#	133217
#	143452
#	155907
#	170066
#	183577
#	197427
#	204580
#	219286
#	229277
#	237165
#	250654
#
# Disc length: 3508 seconds
#
# Revision: 0
# Processed by: cddbd v1.4PL0 Copyright (c) Steve Scherf et al.
# Submitted via: CDex 1.40Release
#
DISCID=480db216
DTITLE=Jeff Zima - Short Fat and Ugly
DYEAR=2002
DGENRE=Blues
TTITLE0=Built For Comfort
TTITLE1=Cedar St Stomp
TTITLE2=Decatur Street Breakdown
TTITLE3=My Sweetie Went Away
TTITLE4=Beat That Thing
TTITLE5=Meet me In The Morning
TTITLE6=Bullfrog Crawl
TTITLE7=Hundred Dollar Hat
TTITLE8=Stole Rag
TTITLE9=Crazy 'bout You
TTITLE10=Durf's Turf (The Graveyard Boogie)
TTITLE11=Roayl And St Pete
TTITLE12=Make A Little Love
TTITLE13=Realy In The Morning
TTITLE14=Big Fat Mama
TTITLE15=Is You Is (Or Is You Ain't My Babe)
TTITLE16=Better By And By
TTITLE17=I'm Going Up The Country (See My Pony Run)
TTITLE18=Archtop Hop
TTITLE19=Freckles
TTITLE20=Short, Fat and Ugly
TTITLE21=Sentimental Journey
EXTD=YEAR: 2002 ID3G: 0
EXTT0=
EXTT1=
EXTT2=
EXTT3=
EXTT4=
EXTT5=
EXTT6=
EXTT7=
EXTT8=
EXTT9=
EXTT10=
EXTT11=
EXTT12=
EXTT13=
EXTT14=
EXTT15=
EXTT16=
EXTT17=
EXTT18=
EXTT19=
EXTT20=
EXTT21=
PLAYORDER=
